<?xml version="1.0" encoding="utf-8"?>
<!-- Generator: Adobe Illustrator 24.1.2, SVG Export Plug-In . SVG Version: 6.00 Build 0)  -->
<svg version="1.1" id="Layer_1" xmlns="http://www.w3.org/2000/svg" xmlns:xlink="http://www.w3.org/1999/xlink" x="0px" y="0px"
	 viewBox="0 0 600 600" style="enable-background:new 0 0 600 600;" xml:space="preserve">
<style type="text/css">
	.Graphic_x0020_Style{fill:url(#SVGID_1_);}
	.st0{fill:url(#SVGID_2_);}
	.st1{fill:url(#SVGID_3_);}
	.st2{fill:url(#SVGID_4_);}
	.st3{fill:url(#SVGID_5_);}
	.st4{fill:url(#SVGID_6_);}
	.st5{fill:url(#SVGID_7_);}
	.st6{fill:url(#SVGID_8_);}
	.st7{fill:url(#SVGID_9_);}
</style>
<linearGradient id="SVGID_1_" gradientUnits="userSpaceOnUse" x1="0" y1="0" x2="1" y2="0">
	<stop  offset="0" style="stop-color:#40CFD5"/>
	<stop  offset="0.2112" style="stop-color:#AEF1E4"/>
	<stop  offset="0.2861" style="stop-color:#EFFFDD"/>
	<stop  offset="0.4144" style="stop-color:#D0EDE8"/>
	<stop  offset="0.5665" style="stop-color:#B2DCF2"/>
	<stop  offset="0.7167" style="stop-color:#9DD0F9"/>
	<stop  offset="0.8628" style="stop-color:#90C8FE"/>
	<stop  offset="1" style="stop-color:#8CC6FF"/>
</linearGradient>
<linearGradient id="SVGID_2_" gradientUnits="userSpaceOnUse" x1="300" y1="600" x2="300" y2="0" gradientTransform="matrix(-1 0 0 1 600 0)">
	<stop  offset="0" style="stop-color:#00BFC7"/>
	<stop  offset="0.238" style="stop-color:#93ECDB"/>
	<stop  offset="0.3182" style="stop-color:#EAFFD2"/>
	<stop  offset="0.3229" style="stop-color:#E9FED2"/>
	<stop  offset="0.5527" style="stop-color:#B1DEE5"/>
	<stop  offset="0.7502" style="stop-color:#88C7F3"/>
	<stop  offset="0.9057" style="stop-color:#6FB8FC"/>
	<stop  offset="1" style="stop-color:#66B3FF"/>
</linearGradient>
<polygon class="st0" points="0,600 600,600 600,0 0,0 "/>
<linearGradient id="SVGID_3_" gradientUnits="userSpaceOnUse" x1="67.8818" y1="419.67" x2="67.8818" y2="320.4364" gradientTransform="matrix(1 0 0 1 380.3273 0)">
	<stop  offset="0" style="stop-color:#E2FAD5"/>
	<stop  offset="1" style="stop-color:#E8F4E9"/>
</linearGradient>
<path class="st1" d="M600,419.67v-96.49c-39.47-7.53-68.34,0.59-87.82,22.62c0,0-122.36-28.96-152.58,30.69
	c-34.86,1.38-55.05,6.2-63.19,43.18C356.85,419.67,600,419.67,600,419.67z"/>
<linearGradient id="SVGID_4_" gradientUnits="userSpaceOnUse" x1="511.6818" y1="419.67" x2="511.6818" y2="349.3118" gradientTransform="matrix(-1 0 0 1 600 0)">
	<stop  offset="0" style="stop-color:#E2FAD5"/>
	<stop  offset="1" style="stop-color:#E8F4E9"/>
</linearGradient>
<path class="st2" d="M0,419.67v-68.65c0,0,79.27-12.12,96.85,28.27c47.33,4.85,75.05,15.35,79.78,40.39
	C141.48,419.67,0,419.67,0,419.67z"/>
<linearGradient id="SVGID_5_" gradientUnits="userSpaceOnUse" x1="512.1832" y1="419.67" x2="512.1832" y2="353.8192">
	<stop  offset="0" style="stop-color:#E2FAD5"/>
	<stop  offset="1" style="stop-color:#FBFFF7"/>
</linearGradient>
<path class="st3" d="M600,354.28c0,0-120.56-8.88-128.43,51.69c-15.73,0.4-38.55,0.75-47.2,13.7c23.6,0,175.63,0,175.63,0V354.28z"
	/>
<linearGradient id="SVGID_6_" gradientUnits="userSpaceOnUse" x1="300" y1="549.8591" x2="300" y2="461.2364">
	<stop  offset="0" style="stop-color:#67E4DA"/>
	<stop  offset="1" style="stop-color:#93ECDB"/>
</linearGradient>
<polygon class="st4" points="600,461.24 0,461.24 0,503.22 531.04,503.22 89.22,533.53 600,549.86 "/>
<linearGradient id="SVGID_7_" gradientUnits="userSpaceOnUse" x1="0.0811" y1="1.393" x2="1.0811" y2="1.393" gradientTransform="matrix(-3.673941e-14 -600 600 -3.673941e-14 300 600)">
	<stop  offset="0" style="stop-color:#40CFD5"/>
	<stop  offset="0.2112" style="stop-color:#AEF1E4"/>
	<stop  offset="0.2861" style="stop-color:#EFFFDD"/>
	<stop  offset="0.4144" style="stop-color:#D0EDE8"/>
	<stop  offset="0.5665" style="stop-color:#B2DCF2"/>
	<stop  offset="0.7167" style="stop-color:#9DD0F9"/>
	<stop  offset="0.8628" style="stop-color:#90C8FE"/>
	<stop  offset="1" style="stop-color:#8CC6FF"/>
</linearGradient>
<path class="st5" d="M1260.61,271.8c-25.99,0-46.09,8.7-60.81,25.36c0,0-29.7-7.03-63.44-7.03c-34.76,0-73.81,7.45-89.14,37.72
	c-34.86,1.38-55.05,6.2-63.19,43.18c60.43,0,303.58,0,303.58,0l0,0c0,0-152.03,0-175.63,0c8.65-12.95,31.47-13.3,47.2-13.7
	c6.08-46.84,79.54-52.15,112.54-52.15c9.68,0,15.88,0.46,15.88,0.46v-31.1C1277.99,272.71,1268.99,271.8,1260.61,271.8"/>
<linearGradient id="SVGID_8_" gradientUnits="userSpaceOnUse" x1="0.0811" y1="0.7932" x2="1.0811" y2="0.7932" gradientTransform="matrix(-3.673941e-14 -600 600 -3.673941e-14 300 600)">
	<stop  offset="0" style="stop-color:#40CFD5"/>
	<stop  offset="0.2112" style="stop-color:#AEF1E4"/>
	<stop  offset="0.2861" style="stop-color:#EFFFDD"/>
	<stop  offset="0.4144" style="stop-color:#D0EDE8"/>
	<stop  offset="0.5665" style="stop-color:#B2DCF2"/>
	<stop  offset="0.7167" style="stop-color:#9DD0F9"/>
	<stop  offset="0.8628" style="stop-color:#90C8FE"/>
	<stop  offset="1" style="stop-color:#8CC6FF"/>
</linearGradient>
<path class="st6" d="M713.63,300.68c-14.86,0-26.01,1.7-26.01,1.7v68.65c0,0,141.48,0,176.64,0c-4.73-25.04-32.45-35.54-79.78-40.38
	C773.48,305.41,738.4,300.68,713.63,300.68"/>
<linearGradient id="SVGID_9_" gradientUnits="userSpaceOnUse" x1="0.0811" y1="1.4997" x2="1.0811" y2="1.4997" gradientTransform="matrix(-3.673941e-14 -600 600 -3.673941e-14 300 600)">
	<stop  offset="0" style="stop-color:#70DBE0"/>
	<stop  offset="0.2112" style="stop-color:#C2F5EB"/>
	<stop  offset="0.2861" style="stop-color:#F3FFE6"/>
	<stop  offset="0.317" style="stop-color:#EDFCE8"/>
	<stop  offset="0.4946" style="stop-color:#CFEAF2"/>
	<stop  offset="0.6699" style="stop-color:#BADEF9"/>
	<stop  offset="0.8403" style="stop-color:#ADD7FE"/>
	<stop  offset="1" style="stop-color:#A9D4FF"/>
</linearGradient>
<path class="st7" d="M1271.73,305.18c-33.01,0-106.46,5.31-112.54,52.15c-15.74,0.4-38.55,0.75-47.2,13.7c23.6,0,175.63,0,175.63,0
	v-65.39C1287.62,305.64,1281.42,305.18,1271.73,305.18"/>
</svg>
